PathFileType	4	(X/Y/Z)	C:\Users\u0145647\OneDrive - KU Leuven\KU Leuven\c3d2osim\CP16\T0\Data\Processed\ViconC3D\CP16_T0_08_gapFilled.trc
DataRate	CameraRate	NumFrames	NumMarkers	Units	OrigDataRate	OrigDataStartFrame	OrigNumFrames
100.000000	100.000000	9	47	mm	100.000000	456	729
Frame#	Time	C7			T10			CLAV			STRN			LSHO			RSHO			RBAK			LASI			RASI			LPSI			RPSI			LLAT			RLAT			LF1			LF2			LF3			LTHI			LKNE			LMEK			RF1			RF2			RF3			RTHI			RKNE			RMEK			LT1			LT2			LT3			LTIB			LMM			LANK			RT1			RT2			RT3			RTIB			RANK			RMM			LHEE			LSTL			LLCA			LTOE			LCM5			RHEE			RSTL			RLCA			RTOE			RCM5
		X1	Y1	Z1	X2	Y2	Z2	X3	Y3	Z3	X4	Y4	Z4	X5	Y5	Z5	X6	Y6	Z6	X7	Y7	Z7	X8	Y8	Z8	X9	Y9	Z9	X10	Y10	Z10	X11	Y11	Z11	X12	Y12	Z12	X13	Y13	Z13	X14	Y14	Z14	X15	Y15	Z15	X16	Y16	Z16	X17	Y17	Z17	X18	Y18	Z18	X19	Y19	Z19	X20	Y20	Z20	X21	Y21	Z21	X22	Y22	Z22	X23	Y23	Z23	X24	Y24	Z24	X25	Y25	Z25	X26	Y26	Z26	X27	Y27	Z27	X28	Y28	Z28	X29	Y29	Z29	X30	Y30	Z30	X31	Y31	Z31	X32	Y32	Z32	X33	Y33	Z33	X34	Y34	Z34	X35	Y35	Z35	X36	Y36	Z36	X37	Y37	Z37	X38	Y38	Z38	X39	Y39	Z39	X40	Y40	Z40	X41	Y41	Z41	X42	Y42	Z42	X43	Y43	Z43	X44	Y44	Z44	X45	Y45	Z45	X46	Y46	Z46	X47	Y47	Z47

456	4.55	1612.2	1439.3	-296.5	1507.8	1167.5	-281.93	1717.8	1327.7	-258.23	1719.1	1157	-258.75	1684.5	1337.5	-452.46	1609.5	1385.9	-93.146	1528.3	1365.3	-180.05	1657.2	907.98	-412.04	1677	897.24	-164.62	1503.4	942.71	-313.39	1509.3	923.3	-235.48	1595.3	986.11	-416.52	1617.5	971.52	-132.41	1582.6	665.72	-441.76	1608.1	706.97	-443.48	1561.4	706.9	-451.14	1580.4	566.49	-466.56	1535.2	446.81	-397.23	1504.9	455.69	-286.21	1699.5	693.59	-101.5	1690.9	735.47	-108.98	1659.4	711.29	-106.63	1744.8	620.19	-51.447	1829.9	494.85	-98.879	1833.5	486.93	-217.38	1488.8	376.58	-412.25	1513.6	353.13	-390.59	1479.7	327.91	-407.74	1473.9	244.59	-447.85	1335.7	82.855	-326.02	1343	85.862	-416.83	1858.7	355.41	-89.324	1838	386.57	-87.135	1875.6	390.29	-91.871	1902.1	273.84	-47.185	1925.3	96.255	-96.571	1939.3	108.2	-189.58	1277.8	75.961	-380.84	1347.4	45.199	-329.98	1350.5	54.21	-423.62	1453.3	50.835	-400.16	1434.7	33.211	-443.45	1877.2	57.462	-141.46	1961.4	83.524	-184.68	1952.3	80.66	-88.497	2043.5	130.51	-107	2016.3	108	-62.913
457	4.56	1623.6	1435.7	-292.82	1519.6	1163.4	-280.6	1729.2	1323.9	-255.17	1730.7	1153	-257.23	1696.1	1334.8	-449.48	1620.5	1380.6	-90.195	1539.2	1360.3	-177.12	1669.1	904.19	-412.81	1689.3	892.79	-165.08	1515.5	938.79	-313.85	1521.5	919.09	-235.64	1607	982.56	-416.37	1629.3	966.81	-131.95	1592.6	662.38	-441.73	1618.3	703.47	-443.75	1572.6	703.07	-451.34	1589.4	562.99	-466.72	1543.4	443.68	-396.81	1514	453.04	-285.69	1713.8	691.81	-102.56	1704.7	733.82	-110.15	1673.6	709.09	-106.97	1758.9	618.98	-52.079	1843.9	492.86	-99.537	1847.5	485.69	-217.69	1495.8	374.33	-411.75	1520.2	350.36	-390.02	1485.7	325.67	-407.33	1478	242.75	-447.39	1337	83.661	-325.54	1343.8	87.057	-416.34	1872.9	353.47	-90.328	1852.4	384.72	-88.077	1889.9	388.1	-92.899	1917.1	271.39	-49.185	1937.8	93.447	-99.602	1952.9	106.56	-192.27	1278.4	78.019	-379.9	1347.9	46.112	-329.46	1350.8	55.198	-423.12	1453.2	50.854	-399.8	1434.6	33.23	-443.19	1890.1	54.937	-144.86	1974.9	81.686	-187.29	1964.7	78.41	-91.404	2056.4	127.33	-108.63	2028.6	104.65	-65.042
458	4.57	1635	1432.1	-289.5	1531.7	1159.4	-279.54	1740.7	1320.1	-251.97	1742.4	1149	-255.46	1707.9	1332.4	-446.37	1631	1375.3	-87.053	1550.3	1355.5	-174.3	1681.7	900.35	-413.15	1701.9	888.66	-165.02	1528.1	935.16	-313.97	1533.9	915.41	-235.69	1619.4	979.05	-416.1	1641.4	961.95	-131.54	1603.4	659.04	-441.83	1629.6	699.98	-444.03	1583.8	700.67	-452.15	1599.2	559.58	-466.58	1552	440.85	-396.21	1523.4	450.57	-284.99	1727.9	690.46	-102.22	1718.2	732.43	-110.47	1687.3	706.88	-107.16	1772.6	616.81	-52.168	1859.4	491.84	-100.19	1862.9	485.62	-218.35	1502.7	372.09	-410.94	1527.2	347.9	-389.35	1491.7	323.73	-406.37	1482.4	240.89	-446.9	1338.6	85.563	-324.5	1344.9	88.215	-415.74	1886.8	351.52	-91.964	1866.5	382.9	-89.296	1904.1	386.06	-94.34	1930.6	268.45	-51.597	1947.5	90.589	-103.27	1963.2	103.98	-195.71	1279.5	80.803	-379.39	1349	47.545	-329.14	1351.2	56.26	-422.55	1453.5	50.998	-399.71	1434.4	33.226	-442.86	1899.6	53.376	-149.33	1984.8	78.8	-190.96	1974.1	74.527	-94.933	2066.5	122.86	-111.31	2038.2	99.819	-68.182
459	4.58	1646.3	1428.7	-285.38	1543.9	1155.9	-278.31	1752.2	1316.7	-248.99	1754.3	1145.5	-253.51	1719.9	1330.1	-443.16	1641.7	1369.9	-83.837	1561.3	1350.7	-171.18	1694.6	896.73	-413.44	1715	884.89	-164.78	1541.2	931.65	-313.94	1546.9	911.51	-235.67	1632.5	975.74	-415.98	1653.5	957.24	-130.95	1614.6	655.81	-441.45	1641.1	696.91	-443.9	1595	696.92	-450.14	1609.1	556.17	-466.06	1560.9	437.92	-395.7	1533.2	448.02	-284.37	1741.3	688.72	-102.16	1731.3	731.04	-110.47	1700.7	705.28	-106.98	1785.7	615.72	-52.521	1874	489.46	-101.36	1879.4	486.05	-219.5	1510.3	370.06	-410.32	1534.6	345.4	-388.97	1498.3	321.88	-405.7	1487.1	239.36	-445.95	1340.2	86.967	-323.76	1346	89.756	-414.97	1899.9	349.01	-93.842	1880.3	380.68	-90.899	1917.7	383.33	-96.6	1942.3	265.1	-54.763	1954.8	87.094	-107.5	1970.5	100.19	-199.8	1280.7	83.432	-378.12	1349.8	48.853	-328.02	1351.6	57.634	-421.9	1453.8	51.113	-399.51	1434.2	33.371	-442.48	1906.5	52.148	-154.04	1991.8	74.24	-195.44	1980.9	70.147	-99.382	2074.1	116.97	-115.48	2045.4	94.069	-72.551
460	4.59	1657.8	1425.5	-281.66	1556.5	1152.1	-277	1763.8	1313.5	-245.07	1766.6	1142.2	-251.3	1732.1	1328.1	-439.79	1652.2	1364.6	-80.418	1572.4	1346	-168.33	1708	893.11	-413.58	1728.4	881.32	-164.23	1554.9	927.89	-313.83	1560.5	907.79	-235.37	1646.4	972.61	-415.57	1666.1	952.76	-130.3	1626.3	652.62	-441.15	1652.8	693.48	-443.29	1607.1	693.99	-449.89	1619.9	553.1	-465.75	1570.2	435.29	-395	1543	445.86	-283.2	1754.7	686.22	-102.97	1744.3	728.71	-110.42	1714	702.5	-107.52	1798.8	614.31	-53.301	1887.4	485.93	-103.22	1896.3	486.21	-221.05	1518.3	368.41	-409.38	1541.9	342.91	-388.03	1505.2	320.56	-404.93	1491.9	238.26	-445.1	1341.9	89.222	-322.79	1347.3	92.148	-414.08	1911.8	345.78	-96.183	1892.9	378.24	-92.876	1930.3	379.91	-99.221	1952.1	260.56	-57.854	1960.8	83.722	-111.49	1975.4	94.3	-203.9	1282.1	87.184	-377.03	1350.8	50.7	-327.33	1352.3	60.012	-421.39	1454.3	51.207	-399.22	1434.1	33.611	-442.13	1911	50.287	-157.27	1995.7	67.35	-199.68	1986.3	66.701	-103.41	2080.4	109.5	-120.9	2051.7	87.255	-77.882
461	4.6	1669.2	1422.7	-277.68	1569.6	1148.4	-275.63	1775.7	1310.7	-241.43	1779.4	1139.5	-249.05	1744.5	1326.4	-436.2	1662.6	1359.6	-76.836	1583.2	1341.1	-165.3	1722	889.48	-413.41	1742	878.12	-163.72	1569	925.28	-313.42	1573.9	905.3	-235.45	1660.7	969.78	-415.19	1679.3	948.68	-129.45	1638.3	649.5	-440.22	1665	690.03	-442.59	1619.1	690.84	-449.01	1630.8	550.17	-464.83	1579.8	432.75	-394.05	1553.4	443.48	-281.94	1767.5	682.59	-103.64	1757	725.28	-109.68	1726.7	699.43	-107.89	1812.1	611.28	-54.672	1900.2	481.87	-104.76	1911.7	484.49	-223.22	1526.4	366.78	-407.93	1549.7	340.81	-387.19	1512.4	319.14	-403.76	1497.1	237.6	-444.14	1343.9	91.613	-321.97	1348.9	94.907	-413.39	1922.2	341.56	-99.43	1904.4	374.35	-95.875	1941.4	375.34	-102.17	1960.6	255.69	-61.218	1965.6	81.005	-113.2	1978.6	88.497	-206.2	1283.6	91.247	-376.09	1351.9	52.899	-326.77	1353.1	62.661	-420.8	1454.9	51.694	-399.22	1434.1	33.987	-441.56	1912.9	51.039	-156.54	1996.7	61.445	-202.3	1990.8	62.976	-105.93	2086.6	99.912	-128.03	2058.3	80.812	-83.261
462	4.61	1680.6	1420.2	-273.42	1582.6	1145.1	-274.28	1787.6	1308.3	-237.64	1792.3	1137.2	-246.45	1757.2	1325.2	-432.53	1672.7	1354.9	-73.46	1594.1	1336.8	-162.31	1736.5	885.81	-412.96	1754.9	874.98	-163.57	1582.4	923.95	-314.17	1587.2	903.54	-235.09	1675.9	967.43	-414.93	1693.3	945.29	-129.2	1650.5	646.45	-439.26	1677.5	686.88	-441.6	1631.2	687.69	-448.08	1641.5	547.06	-463.39	1589.9	430.38	-392.51	1564.1	441.46	-280.5	1778.7	677.38	-103.46	1769.3	721.06	-107.27	1739	695.15	-107.94	1823.7	604.58	-56.568	1913	478.33	-105.47	1925	481.12	-225.61	1534.9	365.51	-406.44	1557.5	339.05	-385.6	1519.8	318.24	-402.27	1502.6	236.8	-443.02	1346.1	94.701	-321.29	1351.1	98.256	-412.53	1932.2	337.26	-102.51	1914.6	370.48	-99.66	1953.9	370.77	-103.02	1965.7	250.49	-62.88	1970.7	80.343	-113.26	1980.6	86.154	-206.89	1285.8	96.222	-375.16	1353.2	56.128	-326.22	1354.5	66.171	-420.13	1455.7	51.887	-398.9	1434.5	34.949	-441.18	1914.6	52.889	-153.94	1997.4	59.757	-203.47	1994.7	61.717	-107.25	2092	92.491	-133.57	2064.5	74.853	-86.756
463	4.62	1692.3	1418.5	-269.3	1595.7	1142.6	-273.13	1798.7	1306.1	-233.16	1805.4	1135.6	-243.55	1770	1324.7	-428.77	1682.8	1350.7	-69.852	1605.2	1332.6	-159.62	1750.9	882.51	-412.36	1767.8	872.19	-163.21	1596.7	921.7	-313.82	1600.6	902.52	-234.97	1691.5	965.83	-414.9	1707.4	942.58	-128.71	1663	643.82	-437.42	1690.4	684.11	-440.12	1644.9	685.54	-447.18	1653.3	544.39	-461.71	1600.3	428.53	-390.55	1574.6	439.94	-278.08	1790.2	672.1	-104.49	1781.2	716.24	-105.12	1751.8	690.57	-109.01	1830.4	593.38	-59.504	1929	477.7	-106.24	1937.6	478.61	-227.27	1544.2	364.85	-404.97	1565.5	337.79	-383.49	1527.5	317.61	-400.6	1508.5	237.07	-441.69	1348.6	98.609	-320.53	1353.7	102.37	-411.9	1944.7	337.6	-102.81	1927.7	371.25	-100.62	1967.4	370.52	-104.31	1973.1	247.96	-63.359	1974.9	79.455	-113.57	1981.6	85.893	-207.37	1288.1	102.35	-374.53	1353.9	60.071	-325.35	1356.3	70.151	-419.58	1456.8	52.227	-398.3	1434.9	35.911	-440.7	1917.9	54.673	-152.25	1999.1	58.25	-204.23	1999	60.496	-108.06	2096.1	88.617	-137.08	2069.7	72.045	-89.74
464	4.63	1704.4	1417.2	-264.88	1608.9	1141.1	-272.15	1810.8	1305.5	-229.17	1818.5	1134.7	-240.52	1783.2	1324.9	-424.95	1692.7	1347.3	-66.255	1615.7	1328.9	-156.29	1765.3	879.99	-411.47	1780.6	870.21	-162.31	1610.7	920.62	-314.71	1614	902.02	-234.85	1707.5	964.82	-415.22	1720.8	940.61	-128.14	1676.1	641.65	-435.79	1703.7	681.7	-438.45	1658.1	683.06	-445.94	1666.1	542.59	-460.07	1610.8	427.09	-388.32	1585.7	438.89	-275.9	1803.7	668.72	-105.39	1793.8	712.32	-104.35	1765.1	687.15	-109.97	1839.3	585.71	-63.739	1944.7	479.37	-108.35	1949.8	478.09	-228.98	1553.6	364.25	-402.88	1574.5	337.05	-381.48	1536.1	317.73	-398.81	1515	237.79	-440.11	1351.5	103.13	-319.85	1357	106.97	-411.26	1957.8	339.5	-102.92	1941.8	373.97	-99.472	1980.2	371.96	-106.24	1985.2	250.79	-64.259	1980.8	79.735	-113.4	1985.9	85.041	-207.28	1291.6	108.99	-373.9	1355.6	64.427	-324.67	1358.5	74.768	-418.94	1458	52.734	-397.56	1435.6	37.41	-440.33	1922	56.376	-151.2	2002.6	56.855	-204.23	2003.7	59.429	-108.21	2101.3	83.675	-138.59	2074.9	68.915	-91.133
